<?xml version="1.0" encoding="UTF-8"?>
<svg id="Layer_1" data-name="Layer 1" xmlns="http://www.w3.org/2000/svg" xmlns:xlink="http://www.w3.org/1999/xlink" viewBox="0 0 3000 3000">
  <defs>
    <style>
      .cls-1 {
        letter-spacing: -.01em;
      }

      .cls-2 {
        fill: url(#linear-gradient);
      }

      .cls-2, .cls-3, .cls-4, .cls-5 {
        stroke-width: 0px;
      }

      .cls-6 {
        letter-spacing: -.04em;
      }

      .cls-7 {
        letter-spacing: -.01em;
      }

      .cls-7, .cls-8, .cls-9, .cls-10, .cls-11 {
        font-family: GCKindEndlictDemo-Regular, 'GC Kind Endlict Demo';
      }

      .cls-12 {
        fill: #d54b16;
        font-size: 128.56px;
      }

      .cls-13 {
        letter-spacing: 0em;
      }

      .cls-14 {
        letter-spacing: 0em;
      }

      .cls-14, .cls-15, .cls-16, .cls-17 {
        font-family: MyriadPro-Regular, 'Myriad Pro';
      }

      .cls-15 {
        letter-spacing: 0em;
      }

      .cls-18 {
        letter-spacing: 0em;
      }

      .cls-8 {
        font-size: 254.75px;
      }

      .cls-8, .cls-9 {
        fill: #8f0f28;
      }

      .cls-3 {
        fill: #fff;
      }

      .cls-9 {
        font-size: 294.68px;
      }

      .cls-4 {
        fill: url(#linear-gradient-2);
      }

      .cls-19 {
        letter-spacing: -.15em;
      }

      .cls-5 {
        fill: url(#linear-gradient-3);
      }

      .cls-20 {
        letter-spacing: -.03em;
      }

      .cls-16 {
        letter-spacing: 0em;
      }

      .cls-11 {
        letter-spacing: -.03em;
      }

      .cls-21 {
        letter-spacing: -.02em;
      }

      .cls-22 {
        letter-spacing: -.03em;
      }
    </style>
    <linearGradient id="linear-gradient" x1="1786.77" y1="1430.48" x2="2047.81" y2="1430.48" gradientUnits="userSpaceOnUse">
      <stop offset="0" stop-color="#fa8907"/>
      <stop offset="1" stop-color="#b1291d"/>
    </linearGradient>
    <linearGradient id="linear-gradient-2" x1="2032.84" y1="1522.16" x2="2223.42" y2="1522.16" xlink:href="#linear-gradient"/>
    <linearGradient id="linear-gradient-3" x1="1665.26" y1="1413.29" x2="2344.93" y2="1413.29" gradientUnits="userSpaceOnUse">
      <stop offset="0" stop-color="#f07e0d"/>
      <stop offset="1" stop-color="#ae311d"/>
    </linearGradient>
  </defs>
  <rect class="cls-3" width="3000" height="3000"/>
  <g>
    <path class="cls-3" d="M1177.75,1639.98c3.4,5.83,10.12,12.19,9.3,17.35-.88,5.47-8.91,9.8-13.82,14.62-4.52-5.18-12.15-10.07-12.67-15.63-.48-5.16,6.61-11.04,10.37-16.6,2.27.09,4.54.17,6.82.26Z"/>
    <g>
      <g>
        <path class="cls-2" d="M2035.18,1041.69c4.91-9.18,8.46-19.1,12.63-28.68h-1.41c-13.4,21.18-29.87,39.76-48.26,56.64-15.75,14.46-32.09,28.29-47.55,43.05-14.66,14-18.54,30.91-10.68,50.13,3.18,7.78,6.18,15.68,8.76,23.69,10.55,32.81,15.39,66.21,9.33,100.55-7.79,44.14-32.47,76.64-69.67,100.31-5.73,3.65-11.5,7.48-17.73,10.03-33.6,13.7-51.64,40.52-62.71,73.41-13.55,40.28-16.63,82.13-18.18,124.13-1.04,28.22-1.07,56.46-1.63,84.69-.04,2.01-.85,4.01-1.3,6.01v4.24c8.46-9.41,16.97-18.78,25.37-28.23,7.57-8.51,15.04-17.11,23.69-26.96-3.46,29.76-6.64,57.65-9.96,85.52-3.53,29.59-7.25,59.17-10.83,88.76-1.57,12.99-3.12,25.99-4.67,38.98h12.86c5.85-38.38,10.46-76.96,15.84-115.41,1.35-9.66,3.68-19.18,5.56-28.76,2.79,11.33,3.1,22.98,6.97,33.29,13.92,37.16,28.72,73.98,43.34,110.88h10.9c-12.65-37.76-25.2-75.54-37.76-113.33-.93-2.79-1.77-5.92-1.48-8.77,2.9-29.2,6.4-58.35,8.99-87.58,1.28-14.56,4.83-27.82,13.05-40.14,15.49-23.21,30.24-46.92,45.35-70.38,19.93-30.96,39.91-61.9,53.56-96.35,12.36-31.18,15.85-62.33,5.57-95.36-18.32-58.89-19.01-118.72-4.55-178.7,9.85-40.86,26.88-78.76,46.61-115.64ZM1962.51,1131.62c-.43,2.67-4.34,4.78-6.74,7.14-2.21-2.53-5.93-4.92-6.19-7.64-.23-2.52,3.23-5.39,5.07-8.1,1.11.05,2.22.09,3.32.13,1.67,2.84,4.94,5.95,4.54,8.47Z"/>
        <path class="cls-4" d="M2199.79,1749.22c-1.96-16.78-3.78-33.59-5.76-50.37-1.94-16.5-3.99-32.99-5.99-49.49.49-.06.99-.12,1.48-.19,10.97,12.42,21.95,24.85,33.91,38.39-.46-4.98-.92-8.18-1.03-11.39-1-29.63-1.57-59.27-3.01-88.88-1.07-21.86-5.11-43.31-12.85-63.86-8.07-21.41-20.77-38.78-42.87-47.78-5.15-2.1-9.93-5.28-14.63-8.33-40.51-26.33-57.82-63.76-50.81-111.41,2.57-17.43,8.27-34.49,13.68-51.35,3.92-12.2,3.77-22.96-4.9-32.85-2.79-3.18-5.43-6.55-8.61-9.28-23.32-20.09-47.18-39.63-64.07-66.06-.5.39-.99.78-1.49,1.16,1.4,3.14,2.69,6.34,4.23,9.42,6.82,13.63,14.1,27.04,20.5,40.86,27.68,59.79,33.95,121.44,14.8,184.95-3.96,13.13-5.2,26.24-3.09,39.63,4.02,25.55,16.07,47.88,29.35,69.45,17.96,29.15,36.72,57.8,55.05,86.73,1.59,2.51,3.18,5.41,3.52,8.27,2.55,21.45,4.89,42.93,7.07,64.42.86,8.54,1.15,16.71-1.95,25.44-12.63,35.46-24.19,71.31-36.23,106.99-1.21,3.6-2.37,6.85,1.98,9.86,4.14-10.3,8.47-19.9,11.92-29.82,13.44-38.58,34.26-74.53,41.31-116.32,11.8,50.14,11.02,101.82,27.36,150.53,2.95-16.59-1.32-32.79-2.98-49.08-1.7-16.58-3.95-33.1-5.88-49.64ZM2090.65,1284.84c.13-2.44,4.18-6.22,6.8-6.48,2.31-.23,5.02,3.6,7.56,5.64-.05,1.07-.1,2.15-.16,3.22-2.73,1.74-5.82,5.21-8.09,4.74-2.58-.54-6.24-4.71-6.11-7.11Z"/>
      </g>
      <path class="cls-5" d="M2344.93,1893.03h-679.67v-959.48h679.67v959.48ZM1719.33,1838.96h571.54v-851.35h-571.54v851.35Z"/>
    </g>
    <text class="cls-9" transform="translate(922.15 1233.82)"><tspan class="cls-19" x="0" y="0">P</tspan><tspan x="152.65" y="0">AA</tspan></text>
    <text class="cls-9" transform="translate(989.82 1594.5)"><tspan class="cls-22" x="0" y="0">J</tspan><tspan class="cls-1" x="101.37" y="0">U</tspan><tspan x="340.65" y="0">U</tspan></text>
    <text class="cls-8" transform="translate(655.07 1897.17)"><tspan class="cls-6" x="0" y="0">P</tspan><tspan class="cls-18" x="158.71" y="0">R</tspan><tspan class="cls-21" x="336.28" y="0">I</tspan><tspan class="cls-20" x="424.42" y="0">N</tspan><tspan class="cls-13" x="613.2" y="0">T</tspan><tspan x="782.86" y="0">S</tspan></text>
    <text class="cls-12" transform="translate(1569.19 2033.92)"><tspan class="cls-7" x="0" y="0">A</tspan><tspan class="cls-11" x="110.31" y="0">r</tspan><tspan class="cls-10" x="178.32" y="0">t </tspan><tspan class="cls-17" x="262.4" y="0">&amp; </tspan><tspan class="cls-14" x="367.43" y="0">B</tspan><tspan class="cls-15" x="437.62" y="0">e</tspan><tspan class="cls-16" x="502.03" y="0">y</tspan><tspan class="cls-17" x="561.3" y="0">ond</tspan></text>
  </g>
</svg>